<svg width="116" height="27" viewBox="0 0 116 27" fill="none" xmlns="http://www.w3.org/2000/svg">
<rect width="116" height="27" fill="#3AA0FF"/>
<g opacity="0.75" filter="url(#filter0_b_1_12)">
<path d="M5.74219 8.53125V13.2188L9.72656 8.53125H12.4766L8.36719 13.1094L12.9453 19H10.1016L6.88281 14.7656L5.74219 16.0469V19H3.57031V8.53125H5.74219ZM19.2891 8.45312L24.1641 19H21.6172L20.8203 17.0469H16.6797L15.8828 19H13.3359L18.2109 8.45312H19.2891ZM18.7578 12L17.4453 15.2031H20.0703L18.7578 12ZM30.1328 8.53125C30.6224 8.53125 31.1016 8.59896 31.5703 8.73438C32.0391 8.86979 32.4609 9.07812 32.8359 9.35938C33.2214 9.64062 33.5234 9.99479 33.7422 10.4219C33.9714 10.8385 34.0859 11.3385 34.0859 11.9219C34.0859 12.5365 33.9297 13.0677 33.6172 13.5156C33.3151 13.9531 32.9141 14.2969 32.4141 14.5469C31.9141 14.7865 31.3724 14.9271 30.7891 14.9688L34.5547 19H31.6953L28.0547 14.7188V19H25.8828V8.53125H30.1328ZM28.0547 10.5625V13.2031C28.3047 13.2865 28.5807 13.3542 28.8828 13.4062C29.1953 13.4479 29.5078 13.4688 29.8203 13.4688C30.4453 13.4688 30.9401 13.3438 31.3047 13.0938C31.6797 12.8333 31.8672 12.4688 31.8672 12C31.8672 11.4896 31.6693 11.125 31.2734 10.9062C30.888 10.6771 30.4141 10.5625 29.8516 10.5625H28.0547ZM40.8672 8.45312L45.7422 19H43.1953L42.3984 17.0469H38.2578L37.4609 19H34.9141L39.7891 8.45312H40.8672ZM40.3359 12L39.0234 15.2031H41.6484L40.3359 12ZM56.6172 8.53125V19.0781H55.8359L49.6328 12.6875V19H47.4609V8.45312H48.2422L54.4453 14.9375V8.53125H56.6172ZM67.2891 8.32812C67.8932 8.32812 68.4453 8.41146 68.9453 8.57812C69.4453 8.74479 69.8672 8.9375 70.2109 9.15625V11.2969C69.8359 11.0677 69.4349 10.8542 69.0078 10.6562C68.5807 10.4583 68.0964 10.3594 67.5547 10.3594C67.2839 10.3594 67.013 10.401 66.7422 10.4844C66.4818 10.5677 66.263 10.6927 66.0859 10.8594C65.9193 11.026 65.8359 11.2396 65.8359 11.5C65.8359 11.8438 65.987 12.1042 66.2891 12.2812C66.5911 12.4583 66.9609 12.6354 67.3984 12.8125L68.6797 13.3438C69.4089 13.6562 69.9453 14.0365 70.2891 14.4844C70.6328 14.9323 70.8047 15.4427 70.8047 16.0156C70.8047 16.6406 70.6224 17.1927 70.2578 17.6719C69.9036 18.1406 69.4245 18.5104 68.8203 18.7812C68.2266 19.0521 67.5651 19.1875 66.8359 19.1875C66.2214 19.1875 65.6328 19.0833 65.0703 18.875C64.5078 18.6667 64.0182 18.4115 63.6016 18.1094V15.9688C64.0599 16.3021 64.5651 16.5833 65.1172 16.8125C65.6693 17.0417 66.2578 17.1562 66.8828 17.1562C67.3203 17.1562 67.6953 17.0729 68.0078 16.9062C68.3203 16.7292 68.4766 16.4688 68.4766 16.125C68.4766 15.8542 68.3464 15.6354 68.0859 15.4688C67.8359 15.2917 67.5599 15.1458 67.2578 15.0312L65.6484 14.4062C64.8359 14.0938 64.2839 13.6875 63.9922 13.1875C63.7109 12.6771 63.5703 12.1146 63.5703 11.5C63.5703 10.8646 63.7422 10.3125 64.0859 9.84375C64.4401 9.36458 64.8984 8.99479 65.4609 8.73438C66.0234 8.46354 66.6328 8.32812 67.2891 8.32812ZM80.7109 8.53125V10.4844H77.3672V18.9531H75.2109V10.4844H71.8672V8.53125H80.7109ZM87.1641 8.29688C87.9141 8.29688 88.6172 8.43229 89.2734 8.70312C89.9297 8.96354 90.5078 9.33854 91.0078 9.82812C91.5182 10.3073 91.9141 10.8802 92.1953 11.5469C92.487 12.2135 92.6328 12.9531 92.6328 13.7656C92.6328 14.5781 92.487 15.3177 92.1953 15.9844C91.9141 16.651 91.5182 17.2292 91.0078 17.7188C90.5078 18.1979 89.9297 18.5729 89.2734 18.8438C88.6172 19.1042 87.9141 19.2344 87.1641 19.2344C86.4141 19.2344 85.7057 19.1042 85.0391 18.8438C84.3828 18.5729 83.7995 18.1979 83.2891 17.7188C82.7891 17.2292 82.3932 16.651 82.1016 15.9844C81.8203 15.3177 81.6797 14.5781 81.6797 13.7656C81.6797 12.9531 81.8203 12.2135 82.1016 11.5469C82.3932 10.8802 82.7891 10.3073 83.2891 9.82812C83.7995 9.33854 84.3828 8.96354 85.0391 8.70312C85.7057 8.43229 86.4141 8.29688 87.1641 8.29688ZM87.1641 10.3438C86.5391 10.3438 85.9766 10.4948 85.4766 10.7969C84.987 11.099 84.6016 11.5052 84.3203 12.0156C84.0391 12.526 83.8984 13.1094 83.8984 13.7656C83.8984 14.4115 84.0391 14.9948 84.3203 15.5156C84.6016 16.026 84.987 16.4323 85.4766 16.7344C85.9766 17.026 86.5391 17.1719 87.1641 17.1719C87.7891 17.1719 88.3464 17.026 88.8359 16.7344C89.3255 16.4323 89.7109 16.026 89.9922 15.5156C90.2734 14.9948 90.4141 14.4115 90.4141 13.7656C90.4141 13.1094 90.2734 12.526 89.9922 12.0156C89.7109 11.5052 89.3255 11.099 88.8359 10.7969C88.3464 10.4948 87.7891 10.3438 87.1641 10.3438ZM99.1484 8.53125C99.638 8.53125 100.117 8.59896 100.586 8.73438C101.055 8.86979 101.477 9.07812 101.852 9.35938C102.237 9.64062 102.539 9.99479 102.758 10.4219C102.987 10.8385 103.102 11.3385 103.102 11.9219C103.102 12.5365 102.945 13.0677 102.633 13.5156C102.331 13.9531 101.93 14.2969 101.43 14.5469C100.93 14.7865 100.388 14.9271 99.8047 14.9688L103.57 19H100.711L97.0703 14.7188V19H94.8984V8.53125H99.1484ZM97.0703 10.5625V13.2031C97.3203 13.2865 97.5964 13.3542 97.8984 13.4062C98.2109 13.4479 98.5234 13.4688 98.8359 13.4688C99.4609 13.4688 99.9557 13.3438 100.32 13.0938C100.695 12.8333 100.883 12.4688 100.883 12C100.883 11.4896 100.685 11.125 100.289 10.9062C99.9036 10.6771 99.4297 10.5625 98.8672 10.5625H97.0703ZM112.133 12.7812V14.5469H107.508V17.0781H112.742V19H105.336V8.53125H112.742V10.4062H107.508V12.7812H112.133Z" fill="white"/>
<path d="M5.74219 8.53125H6.74219V7.53125H5.74219V8.53125ZM5.74219 13.2188H4.74219V15.9393L6.50413 13.8664L5.74219 13.2188ZM9.72656 8.53125V7.53125H9.26412L8.96462 7.8836L9.72656 8.53125ZM12.4766 8.53125L13.2207 9.19923L14.7179 7.53125H12.4766V8.53125ZM8.36719 13.1094L7.62301 12.4414L7.06483 13.0632L7.57761 13.723L8.36719 13.1094ZM12.9453 19V20H14.989L13.7349 18.3863L12.9453 19ZM10.1016 19L9.30546 19.6052L9.6056 20H10.1016V19ZM6.88281 14.7656L7.67892 14.1605L6.94372 13.1933L6.13591 14.1007L6.88281 14.7656ZM5.74219 16.0469L4.99528 15.3819L4.74219 15.6662V16.0469H5.74219ZM5.74219 19V20H6.74219V19H5.74219ZM3.57031 19H2.57031V20H3.57031V19ZM3.57031 8.53125V7.53125H2.57031V8.53125H3.57031ZM4.74219 8.53125V13.2188H6.74219V8.53125H4.74219ZM6.50413 13.8664L10.4885 9.1789L8.96462 7.8836L4.98025 12.5711L6.50413 13.8664ZM9.72656 9.53125H12.4766V7.53125H9.72656V9.53125ZM11.7324 7.86327L7.62301 12.4414L9.11137 13.7774L13.2207 9.19923L11.7324 7.86327ZM7.57761 13.723L12.1557 19.6137L13.7349 18.3863L9.15677 12.4957L7.57761 13.723ZM12.9453 18H10.1016V20H12.9453V18ZM10.8977 18.3948L7.67892 14.1605L6.08671 15.3708L9.30546 19.6052L10.8977 18.3948ZM6.13591 14.1007L4.99528 15.3819L6.48909 16.7118L7.62972 15.4306L6.13591 14.1007ZM4.74219 16.0469V19H6.74219V16.0469H4.74219ZM5.74219 18H3.57031V20H5.74219V18ZM4.57031 19V8.53125H2.57031V19H4.57031ZM3.57031 9.53125H5.74219V7.53125H3.57031V9.53125ZM19.2891 8.45312L20.1968 8.03356L19.9285 7.45312H19.2891V8.45312ZM24.1641 19V20H25.7279L25.0718 18.5804L24.1641 19ZM21.6172 19L20.6913 19.3778L20.9452 20H21.6172V19ZM20.8203 17.0469L21.7462 16.6691L21.4923 16.0469H20.8203V17.0469ZM16.6797 17.0469V16.0469H16.0077L15.7538 16.6691L16.6797 17.0469ZM15.8828 19V20H16.5548L16.8087 19.3778L15.8828 19ZM13.3359 19L12.4282 18.5804L11.7721 20H13.3359V19ZM18.2109 8.45312V7.45312H17.5715L17.3032 8.03356L18.2109 8.45312ZM18.7578 12L19.6831 11.6208L18.7578 9.36259L17.8325 11.6208L18.7578 12ZM17.4453 15.2031L16.52 14.824L15.9549 16.2031H17.4453V15.2031ZM20.0703 15.2031V16.2031H21.5608L20.9956 14.824L20.0703 15.2031ZM18.3813 8.87269L23.2563 19.4196L25.0718 18.5804L20.1968 8.03356L18.3813 8.87269ZM24.1641 18H21.6172V20H24.1641V18ZM22.5431 18.6222L21.7462 16.6691L19.8944 17.4246L20.6913 19.3778L22.5431 18.6222ZM20.8203 16.0469H16.6797V18.0469H20.8203V16.0469ZM15.7538 16.6691L14.9569 18.6222L16.8087 19.3778L17.6056 17.4246L15.7538 16.6691ZM15.8828 18H13.3359V20H15.8828V18ZM14.2437 19.4196L19.1187 8.87269L17.3032 8.03356L12.4282 18.5804L14.2437 19.4196ZM18.2109 9.45312H19.2891V7.45312H18.2109V9.45312ZM17.8325 11.6208L16.52 14.824L18.3706 15.5823L19.6831 12.3792L17.8325 11.6208ZM17.4453 16.2031H20.0703V14.2031H17.4453V16.2031ZM20.9956 14.824L19.6831 11.6208L17.8325 12.3792L19.145 15.5823L20.9956 14.824ZM32.8359 9.35938L32.2359 10.1594L32.2465 10.1672L32.8359 9.35938ZM33.7422 10.4219L32.8521 10.8778L32.8589 10.8909L32.866 10.9038L33.7422 10.4219ZM33.6172 13.5156L32.7971 12.9434L32.7943 12.9474L33.6172 13.5156ZM32.4141 14.5469L32.8462 15.4487L32.8538 15.4451L32.8613 15.4413L32.4141 14.5469ZM30.7891 14.9688L30.7178 13.9713L28.6283 14.1205L30.0583 15.6514L30.7891 14.9688ZM34.5547 19V20H36.8572L35.2855 18.3174L34.5547 19ZM31.6953 19L30.9335 19.6478L31.233 20H31.6953V19ZM28.0547 14.7188L28.8165 14.0709L27.0547 11.9991V14.7188H28.0547ZM28.0547 19V20H29.0547V19H28.0547ZM25.8828 19H24.8828V20H25.8828V19ZM25.8828 8.53125V7.53125H24.8828V8.53125H25.8828ZM28.0547 10.5625V9.5625H27.0547V10.5625H28.0547ZM28.0547 13.2031H27.0547V13.9239L27.7385 14.1518L28.0547 13.2031ZM28.8828 13.4062L28.7129 14.3917L28.7317 14.395L28.7506 14.3975L28.8828 13.4062ZM31.3047 13.0938L31.8702 13.9185L31.8751 13.9151L31.3047 13.0938ZM31.2734 10.9062L30.7624 11.7658L30.7759 11.7739L30.7898 11.7815L31.2734 10.9062ZM30.1328 9.53125C30.5288 9.53125 30.9145 9.58582 31.2928 9.69509L31.8479 7.77366C31.2886 7.61209 30.716 7.53125 30.1328 7.53125V9.53125ZM31.2928 9.69509C31.65 9.79829 31.9617 9.95373 32.2359 10.1594L33.4359 8.55937C32.9601 8.20252 32.4281 7.94129 31.8479 7.77366L31.2928 9.69509ZM32.2465 10.1672C32.5048 10.3557 32.7043 10.589 32.8521 10.8778L34.6322 9.966C34.3426 9.40055 33.9379 8.92557 33.4254 8.55158L32.2465 10.1672ZM32.866 10.9038C32.9975 11.1429 33.0859 11.4692 33.0859 11.9219H35.0859C35.0859 11.2079 34.9452 10.5342 34.6184 9.93996L32.866 10.9038ZM33.0859 11.9219C33.0859 12.3585 32.9781 12.684 32.7971 12.9434L34.4373 14.0878C34.8813 13.4514 35.0859 12.7144 35.0859 11.9219H33.0859ZM32.7943 12.9474C32.5929 13.2391 32.3242 13.4738 31.9668 13.6524L32.8613 15.4413C33.504 15.12 34.0373 14.6672 34.4401 14.0838L32.7943 12.9474ZM31.9819 13.6451C31.6013 13.8275 31.1829 13.9381 30.7178 13.9713L30.8603 15.9662C31.5619 15.9161 32.2268 15.7455 32.8462 15.4487L31.9819 13.6451ZM30.0583 15.6514L33.8239 19.6826L35.2855 18.3174L31.5198 14.2861L30.0583 15.6514ZM34.5547 18H31.6953V20H34.5547V18ZM32.4571 18.3522L28.8165 14.0709L27.2929 15.3666L30.9335 19.6478L32.4571 18.3522ZM27.0547 14.7188V19H29.0547V14.7188H27.0547ZM28.0547 18H25.8828V20H28.0547V18ZM26.8828 19V8.53125H24.8828V19H26.8828ZM25.8828 9.53125H30.1328V7.53125H25.8828V9.53125ZM27.0547 10.5625V13.2031H29.0547V10.5625H27.0547ZM27.7385 14.1518C28.0432 14.2534 28.369 14.3324 28.7129 14.3917L29.0527 12.4208C28.7925 12.3759 28.5662 12.3195 28.3709 12.2544L27.7385 14.1518ZM28.7506 14.3975C29.1066 14.4449 29.4632 14.4688 29.8203 14.4688V12.4688C29.5524 12.4688 29.2841 12.4509 29.015 12.415L28.7506 14.3975ZM29.8203 14.4688C30.5668 14.4688 31.2833 14.3209 31.8702 13.9185L30.7392 12.269C30.5969 12.3666 30.3238 12.4688 29.8203 12.4688V14.4688ZM31.8751 13.9151C32.5277 13.4619 32.8672 12.7859 32.8672 12H30.8672C30.8672 12.1516 30.8317 12.2047 30.7343 12.2724L31.8751 13.9151ZM32.8672 12C32.8672 11.1824 32.5183 10.4517 31.7571 10.031L30.7898 11.7815C30.8162 11.7961 30.8282 11.8069 30.8324 11.811C30.8361 11.8147 30.8379 11.8171 30.8399 11.8208C30.843 11.8266 30.8672 11.8735 30.8672 12H32.8672ZM31.7845 10.0467C31.2097 9.70493 30.5487 9.5625 29.8516 9.5625V11.5625C30.2795 11.5625 30.5663 11.6492 30.7624 11.7658L31.7845 10.0467ZM29.8516 9.5625H28.0547V11.5625H29.8516V9.5625ZM40.8672 8.45312L41.7749 8.03356L41.5066 7.45312H40.8672V8.45312ZM45.7422 19V20H47.3061L46.6499 18.5804L45.7422 19ZM43.1953 19L42.2694 19.3778L42.5233 20H43.1953V19ZM42.3984 17.0469L43.3243 16.6691L43.0705 16.0469H42.3984V17.0469ZM38.2578 17.0469V16.0469H37.5858L37.3319 16.6691L38.2578 17.0469ZM37.4609 19V20H38.133L38.3868 19.3778L37.4609 19ZM34.9141 19L34.0063 18.5804L33.3502 20H34.9141V19ZM39.7891 8.45312V7.45312H39.1496L38.8813 8.03356L39.7891 8.45312ZM40.3359 12L41.2613 11.6208L40.3359 9.36259L39.4106 11.6208L40.3359 12ZM39.0234 15.2031L38.0981 14.824L37.533 16.2031H39.0234V15.2031ZM41.6484 15.2031V16.2031H43.1389L42.5738 14.824L41.6484 15.2031ZM39.9595 8.87269L44.8345 19.4196L46.6499 18.5804L41.7749 8.03356L39.9595 8.87269ZM45.7422 18H43.1953V20H45.7422V18ZM44.1212 18.6222L43.3243 16.6691L41.4725 17.4246L42.2694 19.3778L44.1212 18.6222ZM42.3984 16.0469H38.2578V18.0469H42.3984V16.0469ZM37.3319 16.6691L36.535 18.6222L38.3868 19.3778L39.1837 17.4246L37.3319 16.6691ZM37.4609 18H34.9141V20H37.4609V18ZM35.8218 19.4196L40.6968 8.87269L38.8813 8.03356L34.0063 18.5804L35.8218 19.4196ZM39.7891 9.45312H40.8672V7.45312H39.7891V9.45312ZM39.4106 11.6208L38.0981 14.824L39.9488 15.5823L41.2613 12.3792L39.4106 11.6208ZM39.0234 16.2031H41.6484V14.2031H39.0234V16.2031ZM42.5738 14.824L41.2613 11.6208L39.4106 12.3792L40.7231 15.5823L42.5738 14.824ZM56.6172 8.53125H57.6172V7.53125H56.6172V8.53125ZM56.6172 19.0781V20.0781H57.6172V19.0781H56.6172ZM55.8359 19.0781L55.1184 19.7746L55.413 20.0781H55.8359V19.0781ZM49.6328 12.6875L50.3504 11.991L48.6328 10.2215V12.6875H49.6328ZM49.6328 19V20H50.6328V19H49.6328ZM47.4609 19H46.4609V20H47.4609V19ZM47.4609 8.45312V7.45312H46.4609V8.45312H47.4609ZM48.2422 8.45312L48.9648 7.76186L48.6694 7.45312H48.2422V8.45312ZM54.4453 14.9375L53.7227 15.6288L55.4453 17.4295V14.9375H54.4453ZM54.4453 8.53125V7.53125H53.4453V8.53125H54.4453ZM55.6172 8.53125V19.0781H57.6172V8.53125H55.6172ZM56.6172 18.0781H55.8359V20.0781H56.6172V18.0781ZM56.5535 18.3816L50.3504 11.991L48.9153 13.384L55.1184 19.7746L56.5535 18.3816ZM48.6328 12.6875V19H50.6328V12.6875H48.6328ZM49.6328 18H47.4609V20H49.6328V18ZM48.4609 19V8.45312H46.4609V19H48.4609ZM47.4609 9.45312H48.2422V7.45312H47.4609V9.45312ZM47.5196 9.14439L53.7227 15.6288L55.1679 14.2462L48.9648 7.76186L47.5196 9.14439ZM55.4453 14.9375V8.53125H53.4453V14.9375H55.4453ZM54.4453 9.53125H56.6172V7.53125H54.4453V9.53125ZM70.2109 9.15625H71.2109V8.6073L70.7478 8.31259L70.2109 9.15625ZM70.2109 11.2969L69.6895 12.1502L71.2109 13.0799V11.2969H70.2109ZM66.7422 10.4844L66.4481 9.52854L66.4374 9.53195L66.7422 10.4844ZM66.0859 10.8594L65.4006 10.1312L65.3895 10.1416L65.3788 10.1523L66.0859 10.8594ZM67.3984 12.8125L67.7815 11.8887L67.7736 11.8856L67.3984 12.8125ZM68.6797 13.3438L69.0736 12.4245L69.0627 12.42L68.6797 13.3438ZM70.2578 17.6719L69.462 17.0663L69.4599 17.069L70.2578 17.6719ZM68.8203 18.7812L68.4112 17.8687L68.4053 17.8714L68.8203 18.7812ZM63.6016 18.1094H62.6016V18.6195L63.0146 18.919L63.6016 18.1094ZM63.6016 15.9688L64.1897 15.16L62.6016 14.005V15.9688H63.6016ZM68.0078 16.9062L68.4784 17.7886L68.4897 17.7826L68.5008 17.7763L68.0078 16.9062ZM68.0859 15.4688L67.5079 16.2848L67.5271 16.2984L67.5469 16.311L68.0859 15.4688ZM67.2578 15.0312L66.8958 15.9635L66.9032 15.9662L67.2578 15.0312ZM65.6484 14.4062L66.0104 13.4741L66.0074 13.4729L65.6484 14.4062ZM63.9922 13.1875L63.1163 13.6701L63.1222 13.6808L63.1284 13.6914L63.9922 13.1875ZM64.0859 9.84375L63.2818 9.24935L63.2795 9.25239L64.0859 9.84375ZM65.4609 8.73438L65.8811 9.64184L65.8879 9.63866L65.8948 9.63538L65.4609 8.73438ZM67.2891 9.32812C67.8012 9.32812 68.2447 9.39869 68.6291 9.52681L69.2615 7.62944C68.6459 7.42422 67.9853 7.32812 67.2891 7.32812V9.32812ZM68.6291 9.52681C69.0729 9.67474 69.416 9.83569 69.6741 9.99991L70.7478 8.31259C70.3184 8.03931 69.8177 7.81484 69.2615 7.62944L68.6291 9.52681ZM69.2109 9.15625V11.2969H71.2109V9.15625H69.2109ZM70.7324 10.4436C70.3226 10.1932 69.8876 9.9618 69.4283 9.74894L68.5874 11.5636C68.9822 11.7465 69.3493 11.9423 69.6895 12.1502L70.7324 10.4436ZM69.4283 9.74894C68.851 9.48141 68.2197 9.35938 67.5547 9.35938V11.3594C67.973 11.3594 68.3105 11.4353 68.5874 11.5636L69.4283 9.74894ZM67.5547 9.35938C67.1796 9.35938 66.8098 9.41731 66.4481 9.5286L67.0363 11.4402C67.2163 11.3848 67.3881 11.3594 67.5547 11.3594V9.35938ZM66.4374 9.53195C66.0528 9.65504 65.699 9.85027 65.4006 10.1312L66.7713 11.5876C66.827 11.5351 66.9108 11.4804 67.047 11.4368L66.4374 9.53195ZM65.3788 10.1523C65.0041 10.527 64.8359 11.0049 64.8359 11.5H66.8359C66.8359 11.4774 66.8393 11.4843 66.83 11.5081C66.8256 11.5193 66.8196 11.5312 66.8121 11.5426C66.8047 11.5538 66.7977 11.5618 66.793 11.5665L65.3788 10.1523ZM64.8359 11.5C64.8359 12.2067 65.1821 12.7915 65.7833 13.1439L66.7948 11.4186C66.7802 11.41 66.7791 11.4073 66.7854 11.4134C66.7923 11.4201 66.8035 11.4328 66.8142 11.4514C66.8251 11.4701 66.8313 11.4874 66.8344 11.4997C66.8373 11.5112 66.8359 11.5125 66.8359 11.5H64.8359ZM65.7833 13.1439C66.1389 13.3524 66.5551 13.55 67.0232 13.7394L67.7736 11.8856C67.3668 11.7209 67.0434 11.5643 66.7948 11.4186L65.7833 13.1439ZM67.0154 13.7362L68.2967 14.2675L69.0627 12.42L67.7815 11.8888L67.0154 13.7362ZM68.2858 14.2629C68.9178 14.5338 69.2901 14.8253 69.4958 15.0932L71.0824 13.8756C70.6005 13.2476 69.8999 12.7787 69.0736 12.4246L68.2858 14.2629ZM69.4958 15.0932C69.7034 15.3637 69.8047 15.6594 69.8047 16.0156H71.8047C71.8047 15.226 71.5623 14.5009 71.0824 13.8756L69.4958 15.0932ZM69.8047 16.0156C69.8047 16.4308 69.6888 16.7682 69.462 17.0664L71.0536 18.2774C71.556 17.6172 71.8047 16.8504 71.8047 16.0156H69.8047ZM69.4599 17.069C69.2196 17.3872 68.8816 17.6579 68.4113 17.8687L69.2294 19.6938C69.9673 19.363 70.5877 18.8941 71.0557 18.2747L69.4599 17.069ZM68.4053 17.8714C67.9564 18.0762 67.4388 18.1875 66.8359 18.1875V20.1875C67.6914 20.1875 68.4968 20.028 69.2353 19.6911L68.4053 17.8714ZM66.8359 18.1875C66.3369 18.1875 65.8662 18.1034 65.4176 17.9373L64.723 19.8127C65.3994 20.0633 66.1058 20.1875 66.8359 20.1875V18.1875ZM65.4176 17.9373C64.9267 17.7554 64.5205 17.5405 64.1885 17.2998L63.0146 18.919C63.5159 19.2825 64.0889 19.5779 64.723 19.8127L65.4176 17.9373ZM64.6016 18.1094V15.9688H62.6016V18.1094H64.6016ZM63.0134 16.7775C63.5386 17.1595 64.1131 17.4785 64.7338 17.7361L65.5006 15.8889C65.0171 15.6882 64.5812 15.4447 64.1897 15.16L63.0134 16.7775ZM64.7338 17.7361C65.4129 18.018 66.1323 18.1562 66.8828 18.1562V16.1562C66.3833 16.1562 65.9256 16.0653 65.5006 15.8889L64.7338 17.7361ZM66.8828 18.1562C67.4464 18.1562 67.9908 18.0486 68.4784 17.7886L67.5372 16.0239C67.3998 16.0972 67.1942 16.1562 66.8828 16.1562V18.1562ZM68.5008 17.7763C69.1093 17.4315 69.4766 16.8484 69.4766 16.125H67.4766C67.4766 16.1349 67.4755 16.1309 67.4791 16.1168C67.4829 16.102 67.4902 16.083 67.5019 16.0636C67.5134 16.0444 67.5248 16.0322 67.5306 16.0268C67.5358 16.0219 67.5326 16.0261 67.5148 16.0362L68.5008 17.7763ZM69.4766 16.125C69.4766 15.46 69.1248 14.9463 68.625 14.6265L67.5469 16.311C67.5738 16.3282 67.5494 16.3193 67.5196 16.2693C67.5051 16.2449 67.4934 16.2173 67.4857 16.1887C67.4782 16.1604 67.4766 16.1381 67.4766 16.125H69.4766ZM68.664 14.6527C68.3412 14.4241 67.9894 14.2392 67.6125 14.0963L66.9032 15.9662C67.1304 16.0524 67.3307 16.1592 67.5079 16.2848L68.664 14.6527ZM67.6198 14.0991L66.0104 13.4741L65.2864 15.3384L66.8958 15.9634L67.6198 14.0991ZM66.0074 13.4729C65.3048 13.2027 64.9879 12.9098 64.856 12.6836L63.1284 13.6914C63.5798 14.4652 64.3671 14.9848 65.2895 15.3396L66.0074 13.4729ZM64.868 12.7049C64.6727 12.3504 64.5703 11.9553 64.5703 11.5H62.5703C62.5703 12.2738 62.7492 13.0037 63.1163 13.6701L64.868 12.7049ZM64.5703 11.5C64.5703 11.0564 64.6862 10.7162 64.8923 10.4351L63.2795 9.25239C62.7982 9.90876 62.5703 10.6728 62.5703 11.5H64.5703ZM64.8901 10.4381C65.1405 10.0994 65.4644 9.83472 65.8811 9.64184L65.0408 7.82691C64.3324 8.15486 63.7397 8.62973 63.2818 9.24936L64.8901 10.4381ZM65.8948 9.63538C66.315 9.43304 66.7751 9.32812 67.2891 9.32812V7.32812C66.4905 7.32812 65.7319 7.49404 65.0271 7.83337L65.8948 9.63538ZM80.7109 8.53125H81.7109V7.53125H80.7109V8.53125ZM80.7109 10.4844V11.4844H81.7109V10.4844H80.7109ZM77.3672 10.4844V9.48438H76.3672V10.4844H77.3672ZM77.3672 18.9531V19.9531H78.3672V18.9531H77.3672ZM75.2109 18.9531H74.2109V19.9531H75.2109V18.9531ZM75.2109 10.4844H76.2109V9.48438H75.2109V10.4844ZM71.8672 10.4844H70.8672V11.4844H71.8672V10.4844ZM71.8672 8.53125V7.53125H70.8672V8.53125H71.8672ZM79.7109 8.53125V10.4844H81.7109V8.53125H79.7109ZM80.7109 9.48438H77.3672V11.4844H80.7109V9.48438ZM76.3672 10.4844V18.9531H78.3672V10.4844H76.3672ZM77.3672 17.9531H75.2109V19.9531H77.3672V17.9531ZM76.2109 18.9531V10.4844H74.2109V18.9531H76.2109ZM75.2109 9.48438H71.8672V11.4844H75.2109V9.48438ZM72.8672 10.4844V8.53125H70.8672V10.4844H72.8672ZM71.8672 9.53125H80.7109V7.53125H71.8672V9.53125ZM89.2734 8.70312L88.8919 9.62758L88.9046 9.63262L89.2734 8.70312ZM91.0078 9.82812L90.3082 10.5426L90.3157 10.55L90.3234 10.5572L91.0078 9.82812ZM92.1953 11.5469L91.2739 11.9356L91.2792 11.9477L92.1953 11.5469ZM92.1953 15.9844L91.2791 15.5835L91.2739 15.5957L92.1953 15.9844ZM91.0078 17.7188L91.6997 18.4407L91.7 18.4404L91.0078 17.7188ZM89.2734 18.8438L89.6423 19.7733L89.6549 19.7681L89.2734 18.8438ZM85.0391 18.8438L84.6576 19.7681L84.6664 19.7717L84.6752 19.7752L85.0391 18.8438ZM83.2891 17.7188L82.5894 18.4333L82.597 18.4406L82.6046 18.4478L83.2891 17.7188ZM82.1016 15.9844L81.1801 16.3731L81.1854 16.3852L82.1016 15.9844ZM82.1016 11.5469L81.1853 11.146L81.1802 11.1582L82.1016 11.5469ZM83.2891 9.82812L83.981 10.5501L83.9813 10.5498L83.2891 9.82812ZM85.0391 8.70312L85.4079 9.63265L85.4154 9.62959L85.0391 8.70312ZM85.4766 10.7969L84.9594 9.94092L84.9515 9.94584L85.4766 10.7969ZM84.3203 15.5156L83.4404 15.9908L83.4445 15.9982L84.3203 15.5156ZM85.4766 16.7344L84.9515 17.5854L84.962 17.5919L84.9727 17.5982L85.4766 16.7344ZM88.8359 16.7344L89.3477 17.5935L89.3544 17.5895L89.361 17.5854L88.8359 16.7344ZM89.9922 15.5156L90.8681 15.9982L90.8721 15.9908L89.9922 15.5156ZM88.8359 10.7969L88.3108 11.6479L88.8359 10.7969ZM87.1641 9.29688C87.7907 9.29688 88.3634 9.40938 88.8919 9.6275L89.6549 7.77875C88.8709 7.4552 88.0375 7.29688 87.1641 7.29688V9.29688ZM88.9046 9.63262C89.4385 9.8445 89.9039 10.1468 90.3082 10.5426L91.7074 9.11361C91.1117 8.53027 90.4208 8.08259 89.6423 7.77363L88.9046 9.63262ZM90.3234 10.5572C90.7285 10.9375 91.0452 11.3933 91.2739 11.9356L93.1167 11.1582C92.783 10.3672 92.308 9.67711 91.6922 9.09905L90.3234 10.5572ZM91.2792 11.9477C91.5094 12.474 91.6328 13.075 91.6328 13.7656H93.6328C93.6328 12.8313 93.4645 11.9531 93.1115 11.1461L91.2792 11.9477ZM91.6328 13.7656C91.6328 14.4563 91.5094 15.0573 91.2792 15.5836L93.1115 16.3852C93.4645 15.5782 93.6328 14.7 93.6328 13.7656H91.6328ZM91.2739 15.5957C91.0444 16.1399 90.7255 16.6039 90.3156 16.9971L91.7 18.4404C92.311 17.8544 92.7838 17.1622 93.1167 16.3731L91.2739 15.5957ZM90.3159 16.9968C89.9081 17.3875 89.436 17.6949 88.8919 17.9194L89.6549 19.7681C90.4234 19.451 91.1075 19.0083 91.6997 18.4407L90.3159 16.9968ZM88.9046 17.9143C88.3729 18.1252 87.7957 18.2344 87.1641 18.2344V20.2344C88.0324 20.2344 88.8615 20.0831 89.6423 19.7732L88.9046 17.9143ZM87.1641 18.2344C86.5325 18.2344 85.9481 18.1253 85.4029 17.9123L84.6752 19.7752C85.4633 20.0831 86.2956 20.2344 87.1641 20.2344V18.2344ZM85.4206 17.9194C84.8747 17.6941 84.3943 17.3847 83.9735 16.9897L82.6046 18.4478C83.2046 19.0111 83.891 19.4517 84.6576 19.7681L85.4206 17.9194ZM83.9887 17.0042C83.584 16.6079 83.2601 16.1375 83.0177 15.5836L81.1854 16.3852C81.5264 17.1646 81.9942 17.8504 82.5894 18.4333L83.9887 17.0042ZM83.0229 15.5957C82.7996 15.0663 82.6797 14.461 82.6797 13.7656H80.6797C80.6797 14.6952 80.841 15.5691 81.1802 16.3731L83.0229 15.5957ZM82.6797 13.7656C82.6797 13.0702 82.7996 12.465 83.0229 11.9356L81.1802 11.1582C80.841 11.9621 80.6797 12.836 80.6797 13.7656H82.6797ZM83.0177 11.9477C83.2593 11.3956 83.581 10.9335 83.981 10.5501L82.5972 9.10614C81.9972 9.68112 81.5272 10.3648 81.1854 11.1461L83.0177 11.9477ZM83.9813 10.5498C84.3985 10.1496 84.8721 9.84524 85.4079 9.63262L84.6702 7.77363C83.8935 8.08184 83.2004 8.52749 82.5968 9.10644L83.9813 10.5498ZM85.4154 9.62959C85.9575 9.40937 86.5375 9.29688 87.1641 9.29688V7.29688C86.2906 7.29688 85.4539 7.45522 84.6627 7.77666L85.4154 9.62959ZM87.1641 9.34375C86.37 9.34375 85.6264 9.53799 84.9594 9.94096L85.9937 11.6528C86.3267 11.4516 86.7081 11.3438 87.1641 11.3438V9.34375ZM84.9515 9.94584C84.3132 10.3397 83.8078 10.8737 83.4445 11.533L85.1962 12.4982C85.3953 12.1367 85.6608 11.8582 86.0017 11.6479L84.9515 9.94584ZM83.4445 11.533C83.0719 12.2091 82.8984 12.9622 82.8984 13.7656H84.8984C84.8984 13.2565 85.0062 12.843 85.1962 12.4982L83.4445 11.533ZM82.8984 13.7656C82.8984 14.5619 83.0733 15.3109 83.4404 15.9908L85.2002 15.0405C85.0048 14.6786 84.8984 14.261 84.8984 13.7656H82.8984ZM83.4445 15.9982C83.8078 16.6576 84.3132 17.1916 84.9515 17.5854L86.0017 15.8833C85.6608 15.673 85.3953 15.3945 85.1962 15.033L83.4445 15.9982ZM84.9727 17.5982C85.6378 17.9861 86.3766 18.1719 87.1641 18.1719V16.1719C86.7015 16.1719 86.3154 16.066 85.9804 15.8706L84.9727 17.5982ZM87.1641 18.1719C87.9513 18.1719 88.6886 17.9861 89.3477 17.5935L88.3241 15.8753C88.0041 16.0659 87.6268 16.1719 87.1641 16.1719V18.1719ZM89.361 17.5854C89.9993 17.1916 90.5047 16.6576 90.868 15.9982L89.1163 15.033C88.9172 15.3945 88.6517 15.673 88.3108 15.8833L89.361 17.5854ZM90.8721 15.9908C91.2392 15.3109 91.4141 14.5619 91.4141 13.7656H89.4141C89.4141 14.261 89.3077 14.6786 89.1123 15.0405L90.8721 15.9908ZM91.4141 13.7656C91.4141 12.9622 91.2406 12.2091 90.868 11.533L89.1163 12.4982C89.3063 12.843 89.4141 13.2565 89.4141 13.7656H91.4141ZM90.868 11.533C90.5047 10.8737 89.9993 10.3397 89.361 9.94584L88.3108 11.6479C88.6517 11.8582 88.9172 12.1367 89.1163 12.4982L90.868 11.533ZM89.361 9.94584C88.7001 9.53799 87.9579 9.34375 87.1641 9.34375V11.3438C87.6202 11.3438 87.9927 11.4516 88.3108 11.6479L89.361 9.94584ZM101.852 9.35938L101.252 10.1594L101.262 10.1672L101.852 9.35938ZM102.758 10.4219L101.868 10.8778L101.874 10.8909L101.882 10.9038L102.758 10.4219ZM102.633 13.5156L101.813 12.9434L101.81 12.9474L102.633 13.5156ZM101.43 14.5469L101.862 15.4487L101.869 15.4451L101.877 15.4413L101.43 14.5469ZM99.8047 14.9688L99.7334 13.9713L97.644 14.1205L99.0739 15.6514L99.8047 14.9688ZM103.57 19V20H105.873L104.301 18.3174L103.57 19ZM100.711 19L99.9491 19.6478L100.249 20H100.711V19ZM97.0703 14.7188L97.8321 14.0709L96.0703 11.9991V14.7188H97.0703ZM97.0703 19V20H98.0703V19H97.0703ZM94.8984 19H93.8984V20H94.8984V19ZM94.8984 8.53125V7.53125H93.8984V8.53125H94.8984ZM97.0703 10.5625V9.5625H96.0703V10.5625H97.0703ZM97.0703 13.2031H96.0703V13.9239L96.7541 14.1518L97.0703 13.2031ZM97.8984 13.4062L97.7285 14.3917L97.7473 14.395L97.7663 14.3975L97.8984 13.4062ZM100.32 13.0938L100.886 13.9185L100.891 13.9151L100.32 13.0938ZM100.289 10.9062L99.778 11.7658L99.7916 11.7739L99.8054 11.7815L100.289 10.9062ZM99.1484 9.53125C99.5444 9.53125 99.9302 9.58582 100.308 9.69509L100.863 7.77366C100.304 7.61209 99.7316 7.53125 99.1484 7.53125V9.53125ZM100.308 9.69509C100.666 9.79829 100.977 9.95373 101.252 10.1594L102.452 8.55937C101.976 8.20252 101.444 7.94129 100.863 7.77366L100.308 9.69509ZM101.262 10.1672C101.52 10.3557 101.72 10.589 101.868 10.8778L103.648 9.966C103.358 9.40055 102.954 8.92557 102.441 8.55158L101.262 10.1672ZM101.882 10.9038C102.013 11.1429 102.102 11.4692 102.102 11.9219H104.102C104.102 11.2079 103.961 10.5342 103.634 9.93996L101.882 10.9038ZM102.102 11.9219C102.102 12.3585 101.994 12.684 101.813 12.9434L103.453 14.0878C103.897 13.4514 104.102 12.7144 104.102 11.9219H102.102ZM101.81 12.9474C101.609 13.2391 101.34 13.4738 100.982 13.6524L101.877 15.4413C102.52 15.12 103.053 14.6672 103.456 14.0838L101.81 12.9474ZM100.998 13.6451C100.617 13.8275 100.198 13.9381 99.7334 13.9713L99.8759 15.9662C100.578 15.9161 101.242 15.7455 101.862 15.4487L100.998 13.6451ZM99.0739 15.6514L102.84 19.6826L104.301 18.3174L100.535 14.2861L99.0739 15.6514ZM103.57 18H100.711V20H103.57V18ZM101.473 18.3522L97.8321 14.0709L96.3085 15.3666L99.9491 19.6478L101.473 18.3522ZM96.0703 14.7188V19H98.0703V14.7188H96.0703ZM97.0703 18H94.8984V20H97.0703V18ZM95.8984 19V8.53125H93.8984V19H95.8984ZM94.8984 9.53125H99.1484V7.53125H94.8984V9.53125ZM96.0703 10.5625V13.2031H98.0703V10.5625H96.0703ZM96.7541 14.1518C97.0588 14.2534 97.3846 14.3324 97.7285 14.3917L98.0683 12.4208C97.8081 12.3759 97.5818 12.3195 97.3865 12.2544L96.7541 14.1518ZM97.7663 14.3975C98.1222 14.4449 98.4788 14.4688 98.8359 14.4688V12.4688C98.568 12.4688 98.2997 12.4509 98.0306 12.415L97.7663 14.3975ZM98.8359 14.4688C99.5824 14.4688 100.299 14.3209 100.886 13.9185L99.7548 12.269C99.6125 12.3666 99.3395 12.4688 98.8359 12.4688V14.4688ZM100.891 13.9151C101.543 13.4619 101.883 12.7859 101.883 12H99.8828C99.8828 12.1516 99.8473 12.2047 99.7499 12.2724L100.891 13.9151ZM101.883 12C101.883 11.1824 101.534 10.4517 100.773 10.031L99.8054 11.7815C99.8318 11.7961 99.8438 11.8069 99.848 11.811C99.8517 11.8147 99.8535 11.8171 99.8555 11.8208C99.8587 11.8266 99.8828 11.8735 99.8828 12H101.883ZM100.8 10.0467C100.225 9.70493 99.5643 9.5625 98.8672 9.5625V11.5625C99.2951 11.5625 99.582 11.6492 99.778 11.7658L100.8 10.0467ZM98.8672 9.5625H97.0703V11.5625H98.8672V9.5625ZM112.133 12.7812H113.133V11.7812H112.133V12.7812ZM112.133 14.5469V15.5469H113.133V14.5469H112.133ZM107.508 14.5469V13.5469H106.508V14.5469H107.508ZM107.508 17.0781H106.508V18.0781H107.508V17.0781ZM112.742 17.0781H113.742V16.0781H112.742V17.0781ZM112.742 19V20H113.742V19H112.742ZM105.336 19H104.336V20H105.336V19ZM105.336 8.53125V7.53125H104.336V8.53125H105.336ZM112.742 8.53125H113.742V7.53125H112.742V8.53125ZM112.742 10.4062V11.4062H113.742V10.4062H112.742ZM107.508 10.4062V9.40625H106.508V10.4062H107.508ZM107.508 12.7812H106.508V13.7812H107.508V12.7812ZM111.133 12.7812V14.5469H113.133V12.7812H111.133ZM112.133 13.5469H107.508V15.5469H112.133V13.5469ZM106.508 14.5469V17.0781H108.508V14.5469H106.508ZM107.508 18.0781H112.742V16.0781H107.508V18.0781ZM111.742 17.0781V19H113.742V17.0781H111.742ZM112.742 18H105.336V20H112.742V18ZM106.336 19V8.53125H104.336V19H106.336ZM105.336 9.53125H112.742V7.53125H105.336V9.53125ZM111.742 8.53125V10.4062H113.742V8.53125H111.742ZM112.742 9.40625H107.508V11.4062H112.742V9.40625ZM106.508 10.4062V12.7812H108.508V10.4062H106.508ZM107.508 13.7812H112.133V11.7812H107.508V13.7812Z" fill="white"/>
</g>
<defs>
<filter id="filter0_b_1_12" x="-0.429688" y="4.29688" width="117.172" height="18.9375" filterUnits="userSpaceOnUse" color-interpolation-filters="sRGB">
<feFlood flood-opacity="0" result="BackgroundImageFix"/>
<feGaussianBlur in="BackgroundImageFix" stdDeviation="2"/>
<feComposite in2="SourceAlpha" operator="in" result="effect1_backgroundBlur_1_12"/>
<feBlend mode="normal" in="SourceGraphic" in2="effect1_backgroundBlur_1_12" result="shape"/>
</filter>
</defs>
</svg>
